<mxfile host="app.diagrams.net" agent="Mozilla/5.0 (Windows NT 10.0; Win64; x64) AppleWebKit/537.36 (KHTML, like Gecko) Chrome/134.0.0.0 Safari/537.36" version="26.2.3">
  <diagram name="Página-1" id="FdgQYn6QVEs8h1mAxQNE">
    <mxGraphModel dx="1144" dy="464" grid="1" gridSize="10" guides="1" tooltips="1" connect="1" arrows="1" fold="1" page="1" pageScale="1" pageWidth="827" pageHeight="1169" math="0" shadow="0">
      <root>
        <mxCell id="0" />
        <mxCell id="1" parent="0" />
        <mxCell id="MzF9SdSDzfpDf-DJ4ihF-71" style="edgeStyle=orthogonalEdgeStyle;rounded=0;orthogonalLoop=1;jettySize=auto;html=1;" parent="1" source="MzF9SdSDzfpDf-DJ4ihF-69" target="MzF9SdSDzfpDf-DJ4ihF-70" edge="1">
          <mxGeometry relative="1" as="geometry" />
        </mxCell>
        <mxCell id="MzF9SdSDzfpDf-DJ4ihF-69" value="&amp;lt;&amp;lt;Usuario&amp;gt;&amp;gt;" style="shape=umlActor;verticalLabelPosition=bottom;verticalAlign=top;html=1;outlineConnect=0;" parent="1" vertex="1">
          <mxGeometry x="37" y="570" width="30" height="60" as="geometry" />
        </mxCell>
        <mxCell id="MzF9SdSDzfpDf-DJ4ihF-75" style="edgeStyle=orthogonalEdgeStyle;rounded=0;orthogonalLoop=1;jettySize=auto;html=1;dashed=1;" parent="1" source="MzF9SdSDzfpDf-DJ4ihF-70" target="MzF9SdSDzfpDf-DJ4ihF-72" edge="1">
          <mxGeometry relative="1" as="geometry" />
        </mxCell>
        <mxCell id="MzF9SdSDzfpDf-DJ4ihF-70" value="Ir a comprar producto" style="ellipse;whiteSpace=wrap;html=1;" parent="1" vertex="1">
          <mxGeometry x="147" y="580" width="100" height="40" as="geometry" />
        </mxCell>
        <mxCell id="MzF9SdSDzfpDf-DJ4ihF-72" value="Iniciar Sesión/Registrarse" style="ellipse;whiteSpace=wrap;html=1;" parent="1" vertex="1">
          <mxGeometry x="332" y="575" width="110" height="50" as="geometry" />
        </mxCell>
        <mxCell id="MzF9SdSDzfpDf-DJ4ihF-73" value="&amp;lt;&amp;lt;Include&amp;gt;&amp;gt;" style="text;html=1;strokeColor=none;fillColor=none;align=center;verticalAlign=middle;whiteSpace=wrap;rounded=0;" parent="1" vertex="1">
          <mxGeometry x="262" y="565" width="60" height="30" as="geometry" />
        </mxCell>
        <mxCell id="aX1qL63eGv3V1MdY7Yth-1" style="edgeStyle=orthogonalEdgeStyle;rounded=0;orthogonalLoop=1;jettySize=auto;html=1;" parent="1" source="aX1qL63eGv3V1MdY7Yth-2" target="aX1qL63eGv3V1MdY7Yth-4" edge="1">
          <mxGeometry relative="1" as="geometry" />
        </mxCell>
        <mxCell id="aX1qL63eGv3V1MdY7Yth-2" value="&amp;lt;&amp;lt;Usuario&amp;gt;&amp;gt;" style="shape=umlActor;verticalLabelPosition=bottom;verticalAlign=top;html=1;outlineConnect=0;" parent="1" vertex="1">
          <mxGeometry x="30" y="700" width="30" height="60" as="geometry" />
        </mxCell>
        <mxCell id="aX1qL63eGv3V1MdY7Yth-3" style="edgeStyle=orthogonalEdgeStyle;rounded=0;orthogonalLoop=1;jettySize=auto;html=1;dashed=1;" parent="1" source="aX1qL63eGv3V1MdY7Yth-4" target="aX1qL63eGv3V1MdY7Yth-6" edge="1">
          <mxGeometry relative="1" as="geometry" />
        </mxCell>
        <mxCell id="aX1qL63eGv3V1MdY7Yth-4" value="Entrar en el almacén&amp;nbsp;" style="ellipse;whiteSpace=wrap;html=1;" parent="1" vertex="1">
          <mxGeometry x="140" y="710" width="100" height="40" as="geometry" />
        </mxCell>
        <mxCell id="aX1qL63eGv3V1MdY7Yth-5" style="edgeStyle=orthogonalEdgeStyle;rounded=0;orthogonalLoop=1;jettySize=auto;html=1;entryX=0;entryY=0.5;entryDx=0;entryDy=0;dashed=1;" parent="1" source="aX1qL63eGv3V1MdY7Yth-6" target="aX1qL63eGv3V1MdY7Yth-9" edge="1">
          <mxGeometry relative="1" as="geometry" />
        </mxCell>
        <mxCell id="aX1qL63eGv3V1MdY7Yth-6" value="Buscar producto por nombre, tipo, etc.." style="ellipse;whiteSpace=wrap;html=1;" parent="1" vertex="1">
          <mxGeometry x="325" y="705" width="110" height="50" as="geometry" />
        </mxCell>
        <mxCell id="aX1qL63eGv3V1MdY7Yth-7" value="&amp;lt;&amp;lt;Include&amp;gt;&amp;gt;" style="text;html=1;strokeColor=none;fillColor=none;align=center;verticalAlign=middle;whiteSpace=wrap;rounded=0;" parent="1" vertex="1">
          <mxGeometry x="255" y="695" width="60" height="30" as="geometry" />
        </mxCell>
        <mxCell id="aX1qL63eGv3V1MdY7Yth-8" style="edgeStyle=orthogonalEdgeStyle;rounded=0;orthogonalLoop=1;jettySize=auto;html=1;dashed=1;" parent="1" source="aX1qL63eGv3V1MdY7Yth-9" target="aX1qL63eGv3V1MdY7Yth-12" edge="1">
          <mxGeometry relative="1" as="geometry" />
        </mxCell>
        <mxCell id="aX1qL63eGv3V1MdY7Yth-9" value="Seleccionar producto" style="ellipse;whiteSpace=wrap;html=1;" parent="1" vertex="1">
          <mxGeometry x="505" y="705" width="110" height="50" as="geometry" />
        </mxCell>
        <mxCell id="aX1qL63eGv3V1MdY7Yth-10" value="&amp;lt;&amp;lt;Include&amp;gt;&amp;gt;" style="text;html=1;strokeColor=none;fillColor=none;align=center;verticalAlign=middle;whiteSpace=wrap;rounded=0;" parent="1" vertex="1">
          <mxGeometry x="435" y="695" width="60" height="30" as="geometry" />
        </mxCell>
        <mxCell id="aX1qL63eGv3V1MdY7Yth-11" value="&amp;lt;&amp;lt;Include&amp;gt;&amp;gt;" style="text;html=1;strokeColor=none;fillColor=none;align=center;verticalAlign=middle;whiteSpace=wrap;rounded=0;" parent="1" vertex="1">
          <mxGeometry x="620" y="690" width="60" height="30" as="geometry" />
        </mxCell>
        <mxCell id="aX1qL63eGv3V1MdY7Yth-12" value="Añadir al carrito" style="ellipse;whiteSpace=wrap;html=1;" parent="1" vertex="1">
          <mxGeometry x="710" y="705" width="110" height="50" as="geometry" />
        </mxCell>
        <mxCell id="XN8uw0xDX-IS9YGn2B0x-2" value="Iniciar sesión" style="text;html=1;align=center;verticalAlign=middle;whiteSpace=wrap;rounded=0;" vertex="1" parent="1">
          <mxGeometry x="30" y="535" width="90" height="30" as="geometry" />
        </mxCell>
        <mxCell id="XN8uw0xDX-IS9YGn2B0x-3" value="Explorar productos" style="text;html=1;align=center;verticalAlign=middle;whiteSpace=wrap;rounded=0;" vertex="1" parent="1">
          <mxGeometry x="20" y="665" width="140" height="30" as="geometry" />
        </mxCell>
      </root>
    </mxGraphModel>
  </diagram>
</mxfile>
